<?xml version="1.0" encoding="UTF-8"?>
<!DOCTYPE svg PUBLIC "-//W3C//DTD SVG 1.1//EN" "http://www.w3.org/Graphics/SVG/1.1/DTD/svg11.dtd">
<svg xmlns="http://www.w3.org/2000/svg" version="1.1" width="534px" height="184px" style="shape-rendering:geometricPrecision; text-rendering:geometricPrecision; image-rendering:optimizeQuality; fill-rule:evenodd; clip-rule:evenodd" xmlns:xlink="http://www.w3.org/1999/xlink">
<g><path style="opacity:1" fill="#000000" d="M -0.5,-0.5 C 177.5,-0.5 355.5,-0.5 533.5,-0.5C 533.5,60.8333 533.5,122.167 533.5,183.5C 355.5,183.5 177.5,183.5 -0.5,183.5C -0.5,122.167 -0.5,60.8333 -0.5,-0.5 Z"/></g>
<g><path style="opacity:1" fill="#f6f6f6" d="M 70.5,39.5 C 81.9468,37.5982 92.1134,40.2649 101,47.5C 103.167,45.3333 105.333,43.1667 107.5,41C 109.134,40.5065 110.801,40.3398 112.5,40.5C 112.5,49.1667 112.5,57.8333 112.5,66.5C 110.473,66.6621 108.473,66.4955 106.5,66C 103.225,53.2243 95.2254,45.391 82.5,42.5C 72.4936,45.0074 66.3269,51.3407 64,61.5C 60.4006,80.2478 60.734,98.9145 65,117.5C 67.151,125.321 72.151,129.987 80,131.5C 85.7856,130.387 89.7856,127.053 92,121.5C 92.4998,111.506 92.6665,101.506 92.5,91.5C 90.146,91.162 87.8127,90.662 85.5,90C 84.6634,88.9887 84.33,87.8221 84.5,86.5C 97.5,86.5 110.5,86.5 123.5,86.5C 123.67,87.8221 123.337,88.9887 122.5,90C 120.236,90.2362 118.069,90.7362 116,91.5C 115.5,106.163 115.333,120.83 115.5,135.5C 106.672,136.582 99.6715,133.582 94.5,126.5C 86.2744,136.289 75.9411,139.122 63.5,135C 48.216,127.628 39.3827,115.461 37,98.5C 34.5047,82.6417 37.5047,67.975 46,54.5C 52.788,47.0329 60.9547,42.0329 70.5,39.5 Z"/></g>
<g><path style="opacity:1" fill="#f9f9f9" d="M 375.5,50.5 C 375.17,57.5316 375.503,64.5316 376.5,71.5C 377.107,71.3764 377.44,71.0431 377.5,70.5C 394.454,62.6499 407.954,66.6499 418,82.5C 423.426,97.3525 422.426,111.686 415,125.5C 406.76,136.031 396.26,139.198 383.5,135C 379.529,132.858 376.195,130.024 373.5,126.5C 368.564,133.301 361.897,136.301 353.5,135.5C 353.5,105.167 353.5,74.8333 353.5,44.5C 350.833,44.1667 348.167,43.8333 345.5,43.5C 345.5,42.5 345.5,41.5 345.5,40.5C 353.174,40.3336 360.841,40.5003 368.5,41C 372.911,42.6625 375.245,45.8291 375.5,50.5 Z"/></g>
<g><path style="opacity:1" fill="#444444" d="M 375.5,50.5 C 376.167,57.1667 376.833,63.8333 377.5,70.5C 377.44,71.0431 377.107,71.3764 376.5,71.5C 375.503,64.5316 375.17,57.5316 375.5,50.5 Z"/></g>
<g><path style="opacity:1" fill="#f9f9f9" d="M 260.5,66.5 C 272.238,65.0387 281.571,69.0387 288.5,78.5C 298.248,64.9523 310.248,62.7857 324.5,72C 327.883,75.2692 330.383,79.1026 332,83.5C 332.5,99.4965 332.667,115.497 332.5,131.5C 335.605,131.599 338.272,132.599 340.5,134.5C 332.521,135.665 324.521,135.832 316.5,135C 313.272,133.437 311.105,130.937 310,127.5C 309.667,111.167 309.333,94.8333 309,78.5C 304.952,70.0669 299.952,69.4002 294,76.5C 293,78.5 292,80.5 291,82.5C 290.167,98.8435 290.334,115.177 291.5,131.5C 294.29,132.197 296.957,133.197 299.5,134.5C 286.5,135.833 273.5,135.833 260.5,134.5C 262.728,132.599 265.395,131.599 268.5,131.5C 268.916,113.458 268.416,95.4584 267,77.5C 264.825,72.4878 261.325,70.9878 256.5,73C 253.567,75.2643 251.4,78.0976 250,81.5C 249.167,98.1767 249.334,114.843 250.5,131.5C 253.056,132.051 255.389,133.051 257.5,134.5C 244.833,135.833 232.167,135.833 219.5,134.5C 221.728,132.599 224.395,131.599 227.5,131.5C 227.5,112.167 227.5,92.8333 227.5,73.5C 224.833,72.8333 222.167,72.1667 219.5,71.5C 219.5,70.1667 219.5,68.8333 219.5,67.5C 226.257,67.1226 232.924,67.6226 239.5,69C 243.026,71.0261 245.693,73.8595 247.5,77.5C 250.997,72.656 255.33,68.9893 260.5,66.5 Z"/></g>
<g><path style="opacity:1" fill="#f6f6f6" d="M 457.5,66.5 C 494.473,64.4788 508.973,81.4788 501,117.5C 493.709,130.818 482.376,137.151 467,136.5C 444.013,136.013 432.18,124.346 431.5,101.5C 431.028,82.98 439.695,71.3133 457.5,66.5 Z"/></g>
<g><path style="opacity:1" fill="#f6f6f6" d="M 128.5,67.5 C 136.174,67.3336 143.841,67.5003 151.5,68C 155.112,68.8886 157.612,71.0552 159,74.5C 159.333,89.1667 159.667,103.833 160,118.5C 159.885,125.043 162.885,129.376 169,131.5C 174.476,130.689 178.142,127.689 180,122.5C 180.833,105.823 180.666,89.1567 179.5,72.5C 177.5,71.8333 175.5,71.1667 173.5,70.5C 172.614,69.675 172.281,68.675 172.5,67.5C 185.5,67.5 198.5,67.5 211.5,67.5C 211.5,68.5 211.5,69.5 211.5,70.5C 208.882,70.7792 206.382,71.4459 204,72.5C 203.5,93.4974 203.333,114.497 203.5,135.5C 194.825,136.665 187.991,133.665 183,126.5C 175.983,135.753 166.816,138.92 155.5,136C 146.368,133.199 140.201,127.365 137,118.5C 136.833,103.156 136.333,87.8225 135.5,72.5C 133.5,71.8333 131.5,71.1667 129.5,70.5C 128.614,69.675 128.281,68.675 128.5,67.5 Z"/></g>
<g><path style="opacity:1" fill="#020202" d="M 464.5,69.5 C 470.324,69.477 474.491,72.1437 477,77.5C 480.556,93.9222 480.223,110.256 476,126.5C 471.326,134.78 465.992,135.447 460,128.5C 457.66,124.479 456.326,120.146 456,115.5C 455.333,104.833 455.333,94.1667 456,83.5C 457.086,77.6413 459.92,72.9747 464.5,69.5 Z"/></g>
<g><path style="opacity:1" fill="#080808" d="M 382.5,70.5 C 388.561,70.277 392.728,72.9437 395,78.5C 398.255,93.1441 398.255,107.811 395,122.5C 393.442,129.772 389.275,132.272 382.5,130C 379.567,127.736 377.4,124.902 376,121.5C 375.333,106.5 375.333,91.5 376,76.5C 378.063,74.2659 380.229,72.2659 382.5,70.5 Z"/></g>
</svg>
