<?xml version="1.0" encoding="UTF-8"?>
<!DOCTYPE svg PUBLIC "-//W3C//DTD SVG 1.1//EN" "http://www.w3.org/Graphics/SVG/1.1/DTD/svg11.dtd">
<svg xmlns="http://www.w3.org/2000/svg" version="1.1" width="124px" height="138px" style="shape-rendering:geometricPrecision; text-rendering:geometricPrecision; image-rendering:optimizeQuality; fill-rule:evenodd; clip-rule:evenodd" xmlns:xlink="http://www.w3.org/1999/xlink">
<g><path style="opacity:1" fill="#010101" d="M -0.5,-0.5 C 40.8333,-0.5 82.1667,-0.5 123.5,-0.5C 123.5,45.5 123.5,91.5 123.5,137.5C 82.1667,137.5 40.8333,137.5 -0.5,137.5C -0.5,91.5 -0.5,45.5 -0.5,-0.5 Z"/></g>
<g><path style="opacity:1" fill="#f8f8f8" d="M 67.5,67.5 C 73.463,66.1702 79.7963,65.5036 86.5,65.5C 93.2037,65.5036 99.537,66.1702 105.5,67.5C 103.135,68.0084 100.801,68.6751 98.5,69.5C 97.5007,84.1515 97.1674,98.8182 97.5,113.5C 88.3341,114.833 81.5007,111.5 77,103.5C 70.3291,113.14 61.1624,116.64 49.5,114C 34.0812,108.912 24.5812,98.412 21,82.5C 18.4525,68.9653 19.1192,55.632 23,42.5C 33.3778,21.8953 49.8778,14.062 72.5,19C 76.4964,20.6627 80.1631,22.8294 83.5,25.5C 86.0484,20.6075 90.0484,18.2742 95.5,18.5C 95.5,27.1667 95.5,35.8333 95.5,44.5C 93.1667,44.5 90.8333,44.5 88.5,44.5C 86.4547,34.2851 80.788,26.7851 71.5,22C 60.2187,19.3932 52.3854,23.5598 48,34.5C 42.1305,55.1304 42.1305,75.797 48,96.5C 50.7382,104.599 56.2382,108.766 64.5,109C 69.2062,107.895 72.3729,105.062 74,100.5C 74.8323,90.1506 74.6656,79.8172 73.5,69.5C 71.3432,68.9495 69.3432,68.2829 67.5,67.5 Z"/></g>
<g><path style="opacity:1" fill="#c9c9c9" d="M 105.5,67.5 C 99.537,66.1702 93.2037,65.5036 86.5,65.5C 79.7963,65.5036 73.463,66.1702 67.5,67.5C 66.596,66.791 66.2627,65.791 66.5,64.5C 79.8333,64.5 93.1667,64.5 106.5,64.5C 106.737,65.791 106.404,66.791 105.5,67.5 Z"/></g>
</svg>
